# xmcd
#
# Track frame offsets:
# 150
# 14408
# 35223
# 49335
# 62665
# 76205
# 89410
# 101745
# 121230
# 139780
# 149125
# 162420
# 175848
# 189418
# 204163
# 215353
# 230860
# 246283
# 262868
# 274785
#
# Disc length: 3875 seconds
#
#
# Revision: 0
# Processed by: cddbd v1.5.1PL2 Copyright (c) Steve Scherf et al.
# Submitted via: FreeRIP 2.944 
#
DISCID=2a0f2114
DTITLE=Various Artist - Everlasting Sentimental Hits 3
DYEAR=1900
DGENRE=Oldies
TTITLE0=green green grass of home
TTITLE1=five hundred miles
TTITLE2=the sound of silence
TTITLE3=all i have to do is dream
TTITLE4=scarborough fair
TTITLE5=yellow bird
TTITLE6=if
TTITLE7=my way
TTITLE8=reflections of life
TTITLE9=you're my sunshine
TTITLE10=top of the world
TTITLE11=silence is golden
TTITLE12=heart of gold
TTITLE13=paloma blanca
TTITLE14=devoted to you
TTITLE15=let it be
TTITLE16=rain and tears
TTITLE17=make it with you
TTITLE18=love is blue
TTITLE19=el condor pasa
EXTD=
EXTT0=
EXTT1=
EXTT2=
EXTT3=
EXTT4=
EXTT5=
EXTT6=
EXTT7=
EXTT8=
EXTT9=
EXTT10=
EXTT11=
EXTT12=
EXTT13=
EXTT14=
EXTT15=
EXTT16=
EXTT17=
EXTT18=
EXTT19=
PLAYORDER=
